<?xml version="1.0" standalone="no"?>
<!DOCTYPE svg PUBLIC "-//W3C//DTD SVG 20010904//EN"
 "http://www.w3.org/TR/2001/REC-SVG-20010904/DTD/svg10.dtd">
<svg version="1.0" xmlns="http://www.w3.org/2000/svg"
 width="960.000000pt" height="960.000000pt" viewBox="0 0 960.000000 960.000000"
 preserveAspectRatio="xMidYMid meet">
<metadata>
Created by potrace 1.11, written by Peter Selinger 2001-2013
</metadata>
<g transform="translate(0.000000,960.000000) scale(0.100000,-0.100000)"
fill="#000000" stroke="none">
<path d="M0 4800 l0 -4800 4800 0 4800 0 0 4800 0 4800 -4800 0 -4800 0 0
-4800z m4371 3385 c47 -17 93 -55 113 -95 7 -14 46 -117 86 -230 79 -223 89
-240 166 -259 94 -24 199 -8 244 37 17 18 49 90 94 212 86 230 106 269 158
303 119 77 316 28 379 -95 17 -34 19 -61 19 -289 l0 -252 44 -42 c65 -63 187
-99 262 -79 12 3 92 88 178 189 176 204 198 221 298 219 145 -3 285 -143 265
-267 -3 -17 -39 -125 -81 -238 -42 -113 -76 -218 -76 -233 0 -38 21 -74 77
-128 50 -49 121 -87 162 -88 13 0 118 52 233 117 235 131 269 141 350 105 105
-46 178 -150 178 -251 -1 -31 -6 -68 -13 -83 -7 -15 -81 -109 -166 -210 -152
-178 -155 -183 -154 -227 2 -83 70 -200 137 -236 35 -19 35 -19 280 20 272 43
289 42 356 -14 108 -89 134 -298 47 -379 -12 -11 -110 -71 -217 -132 -107 -61
-204 -120 -215 -131 -17 -17 -20 -33 -20 -117 0 -81 4 -105 24 -145 13 -27 34
-55 46 -63 12 -8 118 -33 236 -55 118 -22 228 -44 246 -50 41 -13 96 -74 118
-132 26 -69 17 -179 -19 -241 -47 -80 -72 -90 -335 -135 -129 -23 -244 -47
-256 -55 -52 -34 -95 -189 -74 -271 14 -56 18 -59 258 -201 219 -130 234 -146
239 -260 4 -62 0 -81 -23 -131 -32 -70 -67 -109 -120 -134 -56 -26 -81 -24
-331 21 -165 30 -228 38 -247 31 -69 -26 -157 -166 -157 -248 0 -45 7 -55 201
-289 119 -143 121 -148 117 -235 -3 -70 -6 -82 -41 -132 -23 -33 -60 -70 -90
-89 -46 -29 -59 -33 -122 -33 l-70 0 -200 119 c-226 135 -246 141 -326 93 -58
-34 -124 -103 -143 -149 -16 -37 -15 -39 61 -255 42 -120 78 -236 81 -259 5
-47 -19 -111 -62 -161 -42 -50 -138 -93 -207 -93 -107 0 -113 5 -306 237 -73
90 -143 168 -155 174 -50 27 -172 3 -250 -49 -61 -40 -68 -62 -69 -224 0 -79
-4 -193 -8 -255 -7 -104 -9 -115 -37 -150 -17 -21 -56 -51 -89 -68 -51 -25
-71 -30 -135 -29 -87 0 -144 24 -183 76 -14 18 -59 130 -101 248 -83 233 -94
250 -169 271 -59 16 -185 7 -224 -16 -37 -22 -36 -19 -125 -255 -85 -224 -88
-230 -135 -269 -110 -90 -331 -45 -392 81 -20 41 -21 60 -21 287 0 204 -3 247
-16 270 -52 88 -256 145 -318 89 -40 -36 -246 -282 -246 -293 1 -5 51 -46 113
-90 145 -104 345 -301 421 -417 66 -100 118 -215 148 -325 30 -111 30 -305 1
-423 -28 -109 -72 -215 -130 -312 l-46 -77 -58 40 c-32 21 -60 43 -63 48 -3 5
12 39 35 76 153 253 168 527 43 779 -90 178 -231 330 -464 496 -52 37 -104 77
-114 89 -15 17 -31 21 -80 21 -135 1 -255 98 -272 221 -5 39 4 73 80 279 l87
234 -26 53 c-42 85 -147 162 -221 163 -22 0 -95 -36 -240 -117 -197 -111 -212
-118 -264 -117 -96 0 -180 58 -229 156 -35 68 -41 136 -17 191 7 18 83 113
167 212 152 178 154 180 153 227 -1 92 -101 240 -168 250 -11 2 -122 -14 -246
-34 -133 -22 -240 -35 -262 -32 -78 12 -163 98 -187 189 -24 90 -4 193 47 239
12 10 112 71 224 135 159 91 206 122 217 146 21 43 17 149 -8 216 -35 93 -38
94 -298 143 -236 45 -272 57 -309 98 -47 51 -59 89 -59 183 0 74 4 98 22 131
26 49 70 88 115 103 28 9 436 81 458 81 4 0 22 14 39 32 38 39 64 115 65 193
2 104 -2 109 -217 236 -106 63 -206 127 -224 142 -112 98 -66 333 79 408 53
27 104 24 343 -20 154 -28 217 -36 235 -29 73 27 160 163 160 248 0 43 -7 53
-141 215 -164 200 -179 224 -179 300 0 140 122 265 260 265 53 0 65 -5 265
-122 151 -87 219 -121 241 -121 71 2 200 101 229 176 l16 42 -77 215 c-91 253
-96 295 -50 373 29 50 93 103 149 124 52 19 152 16 196 -6 25 -13 86 -78 190
-205 133 -161 158 -186 188 -192 81 -15 206 27 259 88 l32 36 6 239 c4 131 10
251 13 267 8 44 89 119 148 138 64 21 140 22 196 3z"/>
<path d="M4585 7374 c-16 -2 -70 -9 -120 -15 -737 -90 -1416 -517 -1835 -1154
-83 -126 -212 -384 -265 -529 -108 -295 -163 -646 -151 -966 9 -268 45 -466
132 -730 154 -468 462 -909 845 -1209 l27 -21 53 82 c30 45 78 114 108 152 44
57 51 73 42 85 -6 9 -25 44 -42 79 -87 176 -30 401 182 724 46 70 190 293 319
495 l235 368 0 65 c0 57 -6 77 -43 152 -65 133 -61 155 50 320 63 95 94 118
158 118 49 0 65 -8 216 -106 90 -59 119 -73 125 -63 73 125 731 1117 750 1132
38 27 108 33 149 12 27 -14 34 -15 42 -3 4 7 18 27 29 45 17 27 299 253 299
239 0 -2 -16 -80 -35 -172 -27 -127 -43 -180 -65 -216 -28 -45 -29 -48 -11
-60 49 -34 73 -114 52 -170 -5 -13 -172 -273 -370 -578 -225 -345 -358 -557
-352 -563 5 -5 65 -46 133 -91 73 -48 132 -95 146 -115 26 -40 29 -99 6 -143
-39 -76 -145 -224 -171 -240 -19 -11 -73 -20 -168 -28 -169 -14 -223 -23 -240
-41 -13 -14 -536 -818 -625 -961 -25 -40 -88 -115 -140 -168 -122 -123 -195
-162 -315 -168 -52 -2 -96 2 -127 11 l-48 15 -49 -61 c-75 -95 -164 -238 -155
-247 5 -4 52 -34 104 -66 293 -178 675 -310 1020 -354 682 -86 1393 118 1940
556 109 88 296 275 384 384 165 206 333 503 421 744 48 131 108 371 131 521
23 148 26 541 6 680 -68 473 -232 875 -505 1238 -121 162 -347 387 -508 508
-353 262 -735 422 -1186 495 -93 15 -507 28 -578 18z"/>
</g>
</svg>
